<svg width="27" height="30" viewBox="0 0 27 30" fill="none" xmlns="http://www.w3.org/2000/svg">
<path fill-rule="evenodd" clip-rule="evenodd" d="M10.1725 28.4366C10.1725 28.8195 9.88767 29.1302 9.53664 29.1302H0.635856C0.284827 29.1302 0 28.8195 0 28.4366V11.7908C0 11.5799 0.0877054 11.3809 0.238419 11.2492L12.9539 0.151872C13.1866 -0.0506239 13.5161 -0.0506239 13.7488 0.151872L26.4643 11.2492C26.615 11.3809 26.7027 11.5799 26.7027 11.7908V28.4366C26.7027 28.8195 26.4179 29.1302 26.0668 29.1302H17.166C16.815 29.1302 16.5302 28.8195 16.5302 28.4366V18.7267C16.5302 18.3438 16.2454 18.0331 15.8946 18.0331H10.8081C10.4573 18.0331 10.1725 18.3438 10.1725 18.7267V28.4366Z" fill="black"/>
</svg>
