<svg width="25" height="30" viewBox="0 0 25 30" fill="none" xmlns="http://www.w3.org/2000/svg">
<path d="M5.73393 21.5535L3.90735 28.8393C3.87998 28.9419 3.90735 29.0513 3.96892 29.1334C4.03049 29.2155 4.13995 29.2634 4.24256 29.2634H20.6612C20.7638 29.2634 20.8665 29.2155 20.928 29.1334C20.9896 29.0513 21.017 28.9419 20.9896 28.8393L19.163 21.5535C21.9268 19.4943 23.7329 16.2106 23.7329 12.5027C23.7329 6.27727 18.6705 1.21484 12.4451 1.21484C6.21964 1.21484 1.16406 6.27727 1.16406 12.5027C1.16406 16.2106 2.97012 19.4943 5.73393 21.5535ZM20.2234 28.5793H4.68039L6.33594 21.9776C8.10095 23.1201 10.2012 23.7905 12.4519 23.7905C14.7026 23.7905 16.8028 23.1201 18.5679 21.9776L20.2234 28.5793ZM12.4519 1.89895C18.301 1.89895 23.0556 6.65353 23.0556 12.5027C23.0556 18.3518 18.301 23.1064 12.4519 23.1064C6.60275 23.1064 1.84817 18.3518 1.84817 12.5027C1.84817 6.65353 6.60275 1.89895 12.4519 1.89895Z" fill="black"/>
<path d="M12.4483 19.002C16.033 19.002 18.9473 16.0877 18.9473 12.503C18.9473 8.91822 16.033 6.00391 12.4483 6.00391C8.86353 6.00391 5.94922 8.91822 5.94922 12.503C5.94922 16.0877 8.86353 19.002 12.4483 19.002ZM12.4483 6.68802C15.6568 6.68802 18.2632 9.29448 18.2632 12.503C18.2632 15.7114 15.6568 18.3179 12.4483 18.3179C9.23979 18.3179 6.63333 15.7114 6.63333 12.503C6.63333 9.29448 9.23979 6.68802 12.4483 6.68802Z" fill="black"/>
<path d="M12.4525 14.2135C13.3965 14.2135 14.1627 13.4473 14.1627 12.5032C14.1627 11.5592 13.3965 10.793 12.4525 10.793C11.5084 10.793 10.7422 11.5592 10.7422 12.5032C10.7422 13.4473 11.5084 14.2135 12.4525 14.2135ZM12.4525 11.4771C13.0203 11.4771 13.4786 11.9354 13.4786 12.5032C13.4786 13.0711 13.0203 13.5294 12.4525 13.5294C11.8847 13.5294 11.4263 13.0711 11.4263 12.5032C11.4263 11.9354 11.8847 11.4771 12.4525 11.4771Z" fill="black"/>
<rect x="0.39302" y="0.627395" width="23.7777" height="23.7777" rx="2.38502" fill="#FBFBFB" stroke="black" stroke-width="0.78604"/>
<circle cx="12.2806" cy="12.5189" r="8.37975" fill="#FBFBFB" stroke="black" stroke-width="0.78604"/>
<circle cx="12.2797" cy="12.5141" r="2.53124" stroke="black" stroke-width="0.78604"/>
</svg>
