<svg width="25" height="30" viewBox="0 0 25 30" fill="none" xmlns="http://www.w3.org/2000/svg">
<path d="M5.5 24.5H19.5L20.5 28.75H3.87061L5.5 24.5Z" fill="black"/>
<path d="M5.73295 21.5535L3.90637 28.8393C3.87901 28.9419 3.90637 29.0513 3.96794 29.1334C4.02951 29.2155 4.13897 29.2634 4.24159 29.2634H20.6603C20.7629 29.2634 20.8655 29.2155 20.9271 29.1334C20.9886 29.0513 21.016 28.9419 20.9886 28.8393L19.1621 21.5535C21.9259 19.4943 23.7319 16.2106 23.7319 12.5027C23.7319 6.27727 18.6695 1.21484 12.4441 1.21484C6.21867 1.21484 1.16309 6.27727 1.16309 12.5027C1.16309 16.2106 2.96914 19.4943 5.73295 21.5535ZM20.2224 28.5793H4.67942L6.33497 21.9776C8.09997 23.1201 10.2002 23.7905 12.4509 23.7905C14.7016 23.7905 16.8019 23.1201 18.5669 21.9776L20.2224 28.5793ZM12.4509 1.89895C18.3001 1.89895 23.0546 6.65353 23.0546 12.5027C23.0546 18.3518 18.3001 23.1064 12.4509 23.1064C6.60177 23.1064 1.8472 18.3518 1.8472 12.5027C1.8472 6.65353 6.60177 1.89895 12.4509 1.89895Z" fill="white"/>
<path d="M12.4488 19.002C16.0335 19.002 18.9478 16.0877 18.9478 12.503C18.9478 8.91822 16.0335 6.00391 12.4488 6.00391C8.86402 6.00391 5.94971 8.91822 5.94971 12.503C5.94971 16.0877 8.86402 19.002 12.4488 19.002ZM12.4488 6.68802C15.6572 6.68802 18.2637 9.29448 18.2637 12.503C18.2637 15.7114 15.6572 18.3179 12.4488 18.3179C9.24028 18.3179 6.63382 15.7114 6.63382 12.503C6.63382 9.29448 9.24028 6.68802 12.4488 6.68802Z" fill="white"/>
<path d="M12.451 14.2135C13.3951 14.2135 14.1613 13.4473 14.1613 12.5032C14.1613 11.5592 13.3951 10.793 12.451 10.793C11.5069 10.793 10.7407 11.5592 10.7407 12.5032C10.7407 13.4473 11.5069 14.2135 12.451 14.2135ZM12.451 11.4771C13.0188 11.4771 13.4772 11.9354 13.4772 12.5032C13.4772 13.0711 13.0188 13.5294 12.451 13.5294C11.8832 13.5294 11.4248 13.0711 11.4248 12.5032C11.4248 11.9354 11.8832 11.4771 12.451 11.4771Z" fill="white"/>
<rect x="0.39302" y="0.627395" width="23.7777" height="23.7777" rx="2.38502" fill="black" stroke="white" stroke-width="0.78604"/>
<circle cx="12.2796" cy="12.5189" r="8.37975" fill="black" stroke="white" stroke-width="0.78604"/>
<circle cx="12.2797" cy="12.5141" r="2.53124" fill="black" stroke="white" stroke-width="0.78604"/>
</svg>
