<svg width="27" height="30" viewBox="0 0 27 30" fill="none" xmlns="http://www.w3.org/2000/svg">
<path d="M9.7725 28.4366C9.7725 28.632 9.63472 28.7302 9.53664 28.7302H0.635856C0.537785 28.7302 0.4 28.632 0.4 28.4366V11.7908C0.4 11.6885 0.442841 11.6018 0.501579 11.5505C0.501584 11.5505 0.501589 11.5505 0.501594 11.5505L13.2165 0.453602C13.2986 0.382188 13.4039 0.38212 13.486 0.453474C13.4861 0.453522 13.4861 0.453569 13.4862 0.453617L26.2011 11.5505C26.2598 11.6018 26.3027 11.6885 26.3027 11.7908V28.4366C26.3027 28.632 26.1649 28.7302 26.0668 28.7302H17.166C17.068 28.7302 16.9302 28.632 16.9302 28.4366V18.7267C16.9302 18.1564 16.4984 17.6331 15.8946 17.6331H10.8081C10.2043 17.6331 9.7725 18.1564 9.7725 18.7267V28.4366Z" stroke="black" stroke-width="0.8"/>
</svg>
