<svg width="22" height="32" viewBox="0 0 22 32" fill="none" xmlns="http://www.w3.org/2000/svg">
<path d="M19.5433 3.1334H15.4239C15.392 2.84599 15.2642 2.59052 15.0726 2.36699C14.7533 2.04765 14.3382 1.85605 13.8592 1.85605H13.3482C13.1566 1.85605 12.965 1.72832 12.8692 1.53672C12.4541 0.610644 11.4961 0.00390625 10.5061 0.00390625C9.48427 0.00390625 8.55819 0.610644 8.14306 1.53672C8.07919 1.69638 7.91952 1.85605 7.66405 1.85605H7.15312C6.38671 1.85605 5.71611 2.39892 5.58837 3.1334H1.53281C0.702538 3.1334 0 3.804 0 4.66621V29.7341C0 30.5643 0.670604 31.2669 1.53281 31.2669H19.5433C20.3736 31.2669 21.0761 30.5963 21.0761 29.7341V4.66621C21.0761 3.83593 20.3736 3.1334 19.5433 3.1334ZM6.35478 3.48466C6.35478 3.03759 6.70605 2.68633 7.15312 2.68633H7.66405C8.17499 2.68633 8.62206 2.39892 8.8456 1.91992C9.133 1.28125 9.8036 0.834179 10.5061 0.834179C11.2087 0.834179 11.8473 1.24932 12.1667 1.91992C12.3902 2.39892 12.8692 2.68633 13.3482 2.68633H13.8592C14.0827 2.68633 14.3062 2.78213 14.4659 2.94179C14.5936 3.10146 14.6575 3.26113 14.6256 3.45273V4.02753C14.6256 4.47461 14.2743 4.82587 13.8272 4.82587H10.4902H7.15312C6.70605 4.82587 6.35478 4.47461 6.35478 4.02753V3.48466ZM20.2778 29.7341C20.2778 30.1492 19.9585 30.4366 19.5753 30.4366H1.53281C1.11767 30.4366 0.830273 30.1173 0.830273 29.7341V4.66621C0.830273 4.25107 1.14961 3.96367 1.53281 3.96367H5.55644V4.02753C5.55644 4.92167 6.29091 5.62421 7.15312 5.62421H13.8272C14.7214 5.62421 15.4239 4.88974 15.4239 4.02753V3.96367H19.5433C19.9585 3.96367 20.2459 4.283 20.2459 4.66621V29.7341H20.2778Z" fill="black"/>
<path d="M10.0905 2.58837C10.0905 2.62031 10.1225 2.65224 10.1225 2.68417C10.1544 2.71611 10.1544 2.74804 10.1863 2.74804C10.2183 2.77997 10.2183 2.77997 10.2502 2.81191C10.2821 2.81191 10.3141 2.84384 10.346 2.84384C10.3779 2.84384 10.4099 2.87577 10.4418 2.87577C10.4737 2.87577 10.5057 2.87577 10.5376 2.87577C10.6653 2.87577 10.7931 2.81191 10.8889 2.74804C10.9208 2.71611 10.9208 2.71611 10.9527 2.68417C10.9527 2.65224 10.9847 2.62031 10.9847 2.58837C10.9847 2.55644 11.0166 2.52451 11.0166 2.49257C11.0166 2.46064 11.0166 2.4287 11.0166 2.39677C11.0166 2.26904 10.9527 2.1413 10.8889 2.0455C10.7931 1.91777 10.6015 1.88583 10.4737 1.91777C10.4418 1.91777 10.4099 1.9497 10.3779 1.9497C10.346 1.9497 10.3141 1.98163 10.2821 1.98163C10.2502 2.01357 10.2183 2.01357 10.2183 2.0455C10.1225 2.1413 10.0586 2.26904 10.0586 2.39677C10.0586 2.4287 10.0586 2.46064 10.0586 2.49257C10.0586 2.52451 10.0905 2.55644 10.0905 2.58837Z" fill="black"/>
<path d="M16.3842 10.418H4.56875C4.34521 10.418 4.18555 10.6096 4.18555 10.8012C4.18555 10.9928 4.37715 11.1844 4.56875 11.1844H16.3842C16.6077 11.1844 16.7674 10.9928 16.7674 10.8012C16.7674 10.6096 16.6077 10.418 16.3842 10.418Z" fill="black"/>
<path d="M16.3842 14.9492H4.56875C4.34521 14.9492 4.18555 15.1408 4.18555 15.3324C4.18555 15.524 4.37715 15.7156 4.56875 15.7156H16.3842C16.6077 15.7156 16.7674 15.524 16.7674 15.3324C16.7674 15.1408 16.6077 14.9492 16.3842 14.9492Z" fill="black"/>
<path d="M16.3842 19.5117H4.56875C4.34521 19.5117 4.18555 19.7033 4.18555 19.8949C4.18555 20.0865 4.37715 20.2781 4.56875 20.2781H16.3842C16.6077 20.2781 16.7674 20.0865 16.7674 19.8949C16.7674 19.7033 16.6077 19.5117 16.3842 19.5117Z" fill="black"/>
<path d="M16.3842 24.0469H4.56875C4.34521 24.0469 4.18555 24.2385 4.18555 24.4301C4.18555 24.6217 4.37715 24.8133 4.56875 24.8133H16.3842C16.6077 24.8133 16.7674 24.6217 16.7674 24.4301C16.7674 24.2385 16.6077 24.0469 16.3842 24.0469Z" fill="black"/>
</svg>
