<svg width="22" height="32" viewBox="0 0 22 32" fill="none" xmlns="http://www.w3.org/2000/svg">
<circle cx="10.5" cy="2.5" r="2.5" fill="black"/>
<circle cx="8.5" cy="4.5" r="2.5" fill="black"/>
<circle cx="12.5" cy="4.5" r="2.5" fill="black"/>
<path d="M10.0915 2.58837C10.0915 2.62031 10.1234 2.65224 10.1234 2.68417C10.1554 2.71611 10.1554 2.74804 10.1873 2.74804C10.2192 2.77997 10.2192 2.77997 10.2512 2.81191C10.2831 2.81191 10.315 2.84384 10.347 2.84384C10.3789 2.84384 10.4108 2.87577 10.4428 2.87577C10.4747 2.87577 10.5066 2.87577 10.5386 2.87577C10.6663 2.87577 10.794 2.81191 10.8898 2.74804C10.9218 2.71611 10.9218 2.71611 10.9537 2.68417C10.9537 2.65224 10.9856 2.62031 10.9856 2.58837C10.9856 2.55644 11.0176 2.52451 11.0176 2.49257C11.0176 2.46064 11.0176 2.4287 11.0176 2.39677C11.0176 2.26904 10.9537 2.1413 10.8898 2.0455C10.794 1.91777 10.6024 1.88583 10.4747 1.91777C10.4428 1.91777 10.4108 1.9497 10.3789 1.9497C10.347 1.9497 10.315 1.98163 10.2831 1.98163C10.2512 2.01357 10.2192 2.01357 10.2192 2.0455C10.1234 2.1413 10.0596 2.26904 10.0596 2.39677C10.0596 2.4287 10.0596 2.46064 10.0596 2.49257C10.0596 2.52451 10.0915 2.55644 10.0915 2.58837Z" fill="black"/>
<path d="M16.3837 10.418H4.56826C4.34473 10.418 4.18506 10.6096 4.18506 10.8012C4.18506 10.9928 4.37666 11.1844 4.56826 11.1844H16.3837C16.6072 11.1844 16.7669 10.9928 16.7669 10.8012C16.7669 10.6096 16.6072 10.418 16.3837 10.418Z" fill="black"/>
<path d="M16.3837 14.9492H4.56826C4.34473 14.9492 4.18506 15.1408 4.18506 15.3324C4.18506 15.524 4.37666 15.7156 4.56826 15.7156H16.3837C16.6072 15.7156 16.7669 15.524 16.7669 15.3324C16.7669 15.1408 16.6072 14.9492 16.3837 14.9492Z" fill="black"/>
<path d="M16.3837 19.5117H4.56826C4.34473 19.5117 4.18506 19.7033 4.18506 19.8949C4.18506 20.0865 4.37666 20.2781 4.56826 20.2781H16.3837C16.6072 20.2781 16.7669 20.0865 16.7669 19.8949C16.7669 19.7033 16.6072 19.5117 16.3837 19.5117Z" fill="black"/>
<path d="M16.3837 24.0469H4.56826C4.34473 24.0469 4.18506 24.2385 4.18506 24.4301C4.18506 24.6217 4.37666 24.8133 4.56826 24.8133H16.3837C16.6072 24.8133 16.7669 24.6217 16.7669 24.4301C16.7669 24.2385 16.6072 24.0469 16.3837 24.0469Z" fill="black"/>
<path d="M19.5433 3.1334H15.4239C15.392 2.84599 15.2642 2.59052 15.0726 2.36699C14.7533 2.04765 14.3382 1.85605 13.8592 1.85605H13.3482C13.1566 1.85605 12.965 1.72832 12.8692 1.53672C12.4541 0.610644 11.4961 0.00390625 10.5061 0.00390625C9.48427 0.00390625 8.55819 0.610644 8.14306 1.53672C8.07919 1.69638 7.91952 1.85605 7.66405 1.85605H7.15312C6.38671 1.85605 5.71611 2.39892 5.58837 3.1334H1.53281C0.702538 3.1334 0 3.804 0 4.66621V29.7341C0 30.5643 0.670604 31.2669 1.53281 31.2669H19.5433C20.3736 31.2669 21.0761 30.5963 21.0761 29.7341V4.66621C21.0761 3.83593 20.3736 3.1334 19.5433 3.1334ZM6.35478 3.48466C6.35478 3.03759 6.70605 2.68633 7.15312 2.68633H7.66405C8.17499 2.68633 8.62206 2.39892 8.8456 1.91992C9.133 1.28125 9.8036 0.834179 10.5061 0.834179C11.2087 0.834179 11.8473 1.24932 12.1667 1.91992C12.3902 2.39892 12.8692 2.68633 13.3482 2.68633H13.8592C14.0827 2.68633 14.3062 2.78213 14.4659 2.94179C14.5936 3.10146 14.6575 3.26113 14.6256 3.45273V4.02753C14.6256 4.4746 14.2743 4.82587 13.8272 4.82587H10.4902H7.15312C6.70605 4.82587 6.35478 4.4746 6.35478 4.02753V3.48466ZM20.2778 29.7341C20.2778 30.1492 19.9585 30.4366 19.5753 30.4366H1.53281C1.11767 30.4366 0.830273 30.1173 0.830273 29.7341V4.66621C0.830273 4.25107 1.14961 3.96367 1.53281 3.96367H5.55644V4.02753C5.55644 4.92167 6.29091 5.62421 7.15312 5.62421H13.8272C14.7214 5.62421 15.4239 4.88974 15.4239 4.02753V3.96367H19.5433C19.9585 3.96367 20.2459 4.283 20.2459 4.66621V29.7341H20.2778Z" fill="black"/>
<rect y="4" width="21" height="27" rx="10.5" fill="black"/>
<rect x="12" y="24" width="9" height="7" rx="2" fill="black"/>
<rect y="24" width="9" height="7" rx="2" fill="black"/>
<rect x="-0.4" y="0.4" width="12.8" height="8.8" rx="2.4" transform="matrix(1 0 0 -1 1 12.8)" fill="black" stroke="black" stroke-width="0.8"/>
<rect x="-0.4" y="0.4" width="12.8" height="8.8" rx="2.4" transform="matrix(1 0 0 -1 8 12.8)" fill="black" stroke="black" stroke-width="0.8"/>
<path d="M16.3837 10.418H4.56826C4.34473 10.418 4.18506 10.6096 4.18506 10.8012C4.18506 10.9928 4.37666 11.1844 4.56826 11.1844H16.3837C16.6072 11.1844 16.7669 10.9928 16.7669 10.8012C16.7669 10.6096 16.6072 10.418 16.3837 10.418Z" fill="white"/>
<path d="M16.3837 14.9492H4.56826C4.34473 14.9492 4.18506 15.1408 4.18506 15.3324C4.18506 15.524 4.37666 15.7156 4.56826 15.7156H16.3837C16.6072 15.7156 16.7669 15.524 16.7669 15.3324C16.7669 15.1408 16.6072 14.9492 16.3837 14.9492Z" fill="white"/>
<path d="M16.3837 19.5117H4.56826C4.34473 19.5117 4.18506 19.7033 4.18506 19.8949C4.18506 20.0865 4.37666 20.2781 4.56826 20.2781H16.3837C16.6072 20.2781 16.7669 20.0865 16.7669 19.8949C16.7669 19.7033 16.6072 19.5117 16.3837 19.5117Z" fill="white"/>
<path d="M16.3837 24.0469H4.56826C4.34473 24.0469 4.18506 24.2385 4.18506 24.4301C4.18506 24.6217 4.37666 24.8133 4.56826 24.8133H16.3837C16.6072 24.8133 16.7669 24.6217 16.7669 24.4301C16.7669 24.2385 16.6072 24.0469 16.3837 24.0469Z" fill="white"/>
<line x1="1" y1="3.7" x2="20" y2="3.7" stroke="black" stroke-width="0.6"/>
<path d="M10.0915 2.58837C10.0915 2.62031 10.1234 2.65224 10.1234 2.68417C10.1554 2.71611 10.1554 2.74804 10.1873 2.74804C10.2192 2.77997 10.2192 2.77997 10.2512 2.81191C10.2831 2.81191 10.315 2.84384 10.347 2.84384C10.3789 2.84384 10.4108 2.87577 10.4428 2.87577C10.4747 2.87577 10.5066 2.87577 10.5386 2.87577C10.6663 2.87577 10.794 2.81191 10.8898 2.74804C10.9218 2.71611 10.9218 2.71611 10.9537 2.68417C10.9537 2.65224 10.9856 2.62031 10.9856 2.58837C10.9856 2.55644 11.0176 2.52451 11.0176 2.49257C11.0176 2.46064 11.0176 2.4287 11.0176 2.39677C11.0176 2.26904 10.9537 2.1413 10.8898 2.0455C10.794 1.91777 10.6024 1.88583 10.4747 1.91777C10.4428 1.91777 10.4108 1.9497 10.3789 1.9497C10.347 1.9497 10.315 1.98163 10.2831 1.98163C10.2512 2.01357 10.2192 2.01357 10.2192 2.0455C10.1234 2.1413 10.0596 2.26904 10.0596 2.39677C10.0596 2.4287 10.0596 2.46064 10.0596 2.49257C10.0596 2.52451 10.0915 2.55644 10.0915 2.58837Z" fill="white"/>
</svg>
