<svg width="30" height="30" viewBox="0 0 30 30" fill="none" xmlns="http://www.w3.org/2000/svg">
<ellipse cx="14.5" cy="15" rx="14.5" ry="14" fill="black"/>
<path fill-rule="evenodd" clip-rule="evenodd" d="M28.1498 14.7493C28.1499 12.5069 27.5969 10.2992 26.5399 8.32156C25.4829 6.34395 23.9545 4.65754 22.09 3.41173C20.2256 2.16591 18.0827 1.39913 15.8511 1.17932C13.6195 0.959512 11.3682 1.29345 9.29653 2.15156C7.22485 3.00967 5.39678 4.36546 3.97424 6.09883C2.5517 7.83221 1.57861 9.88966 1.14116 12.0889C0.70371 14.2882 0.815409 16.5615 1.46636 18.7073C2.11731 20.8531 3.28742 22.8052 4.87304 24.3908C5.11108 24.6292 5.35752 24.8581 5.61233 25.0775C6.29798 23.2714 7.51673 21.7166 9.10679 20.6195C10.6968 19.5223 12.583 18.9348 14.5148 18.9348C16.4466 18.9348 18.3328 19.5223 19.9228 20.6195C21.5129 21.7166 22.7317 23.2714 23.4173 25.0775C23.6719 24.8581 23.9182 24.6292 24.1563 24.3908C25.4243 23.126 26.4299 21.6232 27.1152 19.9686C27.8006 18.314 28.1522 16.5402 28.1498 14.7493ZM6.33518 25.6594C6.91843 23.9533 8.02054 22.4723 9.48724 21.4237C10.9539 20.3751 12.7118 19.8113 14.5148 19.8113C16.3178 19.8113 18.0757 20.3751 19.5424 21.4237C21.0091 22.4723 22.1112 23.9533 22.6945 25.6594C20.3343 27.4282 17.4643 28.3843 14.5148 28.3843C11.5654 28.3843 8.69537 27.4282 6.33518 25.6594ZM18.4338 12.2869C18.4339 13.1937 18.1196 14.0725 17.5444 14.7735C16.9692 15.4745 16.1687 15.9543 15.2794 16.1313C14.39 16.3082 13.4669 16.1714 12.6671 15.744C11.8674 15.3166 11.2406 14.6251 10.8936 13.7873C10.5465 12.9496 10.5007 12.0174 10.7639 11.1497C11.0271 10.282 11.583 9.53233 12.3369 9.02853C13.0909 8.52473 13.9962 8.29794 14.8986 8.3868C15.801 8.47567 16.6447 8.87469 17.2859 9.51587C17.6503 9.87936 17.9394 10.3113 18.1364 10.7868C18.3334 11.2624 18.4345 11.7722 18.4338 12.2869ZM17.9081 8.89367C18.6933 9.67874 19.182 10.7118 19.2909 11.8168C19.3998 12.9218 19.1222 14.0304 18.5054 14.9536C17.8886 15.8769 16.9707 16.5577 15.9082 16.8801C14.8457 17.2025 13.7042 17.1465 12.6784 16.7216C11.6525 16.2967 10.8057 15.5293 10.2823 14.5501C9.75883 13.5708 9.59111 12.4404 9.80771 11.3514C10.0243 10.2623 10.6118 9.28211 11.4701 8.5777C12.3285 7.8733 13.4045 7.48829 14.5148 7.4883C15.1451 7.48748 15.7694 7.61121 16.3517 7.85239C16.934 8.09356 17.4629 8.44744 17.9081 8.89367ZM24.7785 4.48565C27.153 6.86017 28.6308 9.98457 28.96 13.3265C29.2891 16.6684 28.4494 20.0211 26.5837 22.8133C24.7181 25.6055 21.942 27.6644 18.7285 28.6392C15.515 29.614 12.0629 29.4445 8.96042 28.1594C5.85793 26.8743 3.297 24.5533 1.71398 21.5917C0.130958 18.6301 -0.376206 15.2113 0.2789 11.9177C0.934007 8.62412 2.71085 5.65958 5.30668 3.5292C7.90251 1.39882 11.1567 0.234416 14.5148 0.234387C16.4213 0.231948 18.3094 0.606269 20.0707 1.33584C21.832 2.06541 23.4322 3.13585 24.7785 4.48565Z" fill="white"/>
</svg>
