<svg width="30" height="30" viewBox="0 0 30 30" fill="none" xmlns="http://www.w3.org/2000/svg">
<path fill-rule="evenodd" clip-rule="evenodd" d="M29.1205 14.7493C29.1206 12.5069 28.5676 10.2992 27.5106 8.32156C26.4536 6.34395 24.9252 4.65754 23.0607 3.41173C21.1963 2.16591 19.0534 1.39913 16.8218 1.17932C14.5902 0.959512 12.3389 1.29345 10.2672 2.15156C8.19556 3.00967 6.36748 4.36546 4.94494 6.09883C3.5224 7.83221 2.54931 9.88966 2.11186 12.0889C1.67441 14.2882 1.78611 16.5615 2.43706 18.7073C3.08801 20.8531 4.25812 22.8052 5.84374 24.3908C6.08179 24.6292 6.32822 24.8581 6.58304 25.0775C7.26869 23.2714 8.48744 21.7166 10.0775 20.6195C11.6675 19.5223 13.5537 18.9348 15.4855 18.9348C17.4174 18.9348 19.3035 19.5223 20.8935 20.6195C22.4836 21.7166 23.7024 23.2714 24.388 25.0775C24.6426 24.8581 24.8889 24.6292 25.127 24.3908C26.395 23.126 27.4006 21.6232 28.086 19.9686C28.7713 18.314 29.1229 16.5402 29.1205 14.7493ZM7.30588 25.6594C7.88913 23.9533 8.99124 22.4723 10.4579 21.4237C11.9246 20.3751 13.6825 19.8113 15.4855 19.8113C17.2885 19.8113 19.0464 20.3751 20.5131 21.4237C21.9798 22.4723 23.0819 23.9533 23.6652 25.6594C21.305 27.4282 18.435 28.3843 15.4855 28.3843C12.5361 28.3843 9.66607 27.4282 7.30588 25.6594ZM19.4045 12.2869C19.4046 13.1937 19.0903 14.0725 18.5151 14.7735C17.9399 15.4745 17.1394 15.9543 16.2501 16.1313C15.3608 16.3082 14.4376 16.1714 13.6378 15.744C12.8381 15.3166 12.2113 14.6251 11.8643 13.7873C11.5172 12.9496 11.4714 12.0174 11.7346 11.1497C11.9978 10.282 12.5537 9.53233 13.3076 9.02853C14.0616 8.52473 14.9669 8.29794 15.8693 8.3868C16.7717 8.47567 17.6154 8.87469 18.2566 9.51587C18.621 9.87936 18.9101 10.3113 19.1071 10.7868C19.3041 11.2624 19.4052 11.7722 19.4045 12.2869ZM18.8788 8.89367C19.664 9.67874 20.1527 10.7118 20.2616 11.8168C20.3705 12.9218 20.0929 14.0304 19.4761 14.9536C18.8593 15.8769 17.9414 16.5577 16.8789 16.8801C15.8164 17.2025 14.6749 17.1465 13.6491 16.7216C12.6232 16.2967 11.7764 15.5293 11.253 14.5501C10.7295 13.5708 10.5618 12.4404 10.7784 11.3514C10.995 10.2623 11.5825 9.28211 12.4408 8.5777C13.2992 7.8733 14.3752 7.48829 15.4855 7.4883C16.1158 7.48748 16.7401 7.61121 17.3224 7.85239C17.9047 8.09356 18.4336 8.44744 18.8788 8.89367ZM25.7492 4.48565C28.1237 6.86017 29.6015 9.98457 29.9307 13.3265C30.2598 16.6684 29.4201 20.0211 27.5544 22.8133C25.6888 25.6055 22.9127 27.6644 19.6992 28.6392C16.4857 29.614 13.0336 29.4445 9.93113 28.1594C6.82863 26.8743 4.2677 24.5533 2.68468 21.5917C1.10166 18.6301 0.594497 15.2113 1.2496 11.9177C1.90471 8.62412 3.68155 5.65958 6.27738 3.5292C8.87322 1.39882 12.1274 0.234416 15.4855 0.234387C17.392 0.231948 19.2801 0.606269 21.0414 1.33584C22.8027 2.06541 24.4029 3.13585 25.7492 4.48565Z" fill="black"/>
</svg>
